<?xml version="1.0" standalone="no"?>
<!DOCTYPE svg PUBLIC "-//W3C//DTD SVG 20010904//EN"
 "http://www.w3.org/TR/2001/REC-SVG-20010904/DTD/svg10.dtd">
<svg version="1.0" xmlns="http://www.w3.org/2000/svg"
 width="240.000000pt" height="240.000000pt" viewBox="0 0 240.000000 240.000000"
 preserveAspectRatio="xMidYMid meet">
<metadata>
Created by potrace 1.14, written by Peter Selinger 2001-2017
</metadata>
<g transform="translate(0.000000,240.000000) scale(0.100000,-0.100000)"
fill="#000000" stroke="none">
<path d="M2130 1369 c-6 -13 -32 -78 -58 -144 -36 -90 -54 -123 -73 -132 -22
-11 -18 -13 36 -12 47 0 55 2 37 10 -24 9 -24 14 -1 77 8 21 14 23 60 20 51
-3 52 -4 66 -43 12 -36 12 -41 -4 -52 -14 -11 -7 -13 48 -13 58 0 62 1 39 13
-20 10 -35 41 -75 149 -28 75 -53 140 -57 144 -4 3 -12 -4 -18 -17z m39 -146
c1 -9 -14 -13 -40 -13 -45 0 -45 0 -12 79 l15 36 19 -45 c10 -25 18 -51 18
-57z"/>
<path d="M117 1368 c14 -7 31 -34 47 -77 14 -36 38 -99 53 -140 15 -40 32 -74
37 -75 9 -1 21 26 95 205 20 49 40 80 54 87 18 9 12 11 -38 11 -46 0 -55 -2
-37 -9 12 -5 22 -14 22 -20 0 -12 -70 -192 -79 -202 -7 -8 -82 186 -81 209 0
6 8 14 18 16 9 3 -12 5 -48 5 -53 1 -61 -1 -43 -10z"/>
<path d="M648 1364 c21 -14 22 -23 22 -134 0 -111 -1 -120 -22 -134 -21 -15
-19 -16 42 -15 49 0 60 2 43 9 -22 9 -23 14 -23 140 0 126 1 131 23 140 17 7
6 9 -43 9 -61 1 -63 0 -42 -15z"/>
<path d="M978 1364 c21 -14 22 -23 22 -134 0 -111 -1 -120 -22 -134 -21 -15
-19 -16 42 -15 49 0 60 2 43 9 -20 8 -23 17 -23 65 0 52 2 56 22 53 14 -2 37
-25 62 -63 30 -43 50 -62 74 -69 18 -5 34 -7 37 -4 3 2 -14 25 -38 49 -23 25
-48 56 -55 70 -13 24 -12 28 12 52 33 33 35 88 6 117 -17 17 -33 20 -112 20
-87 0 -91 -1 -70 -16z m150 -21 c33 -45 1 -113 -54 -113 l-34 0 0 63 c0 35 3
67 7 71 12 12 67 -3 81 -21z"/>
<path d="M1460 1367 c24 -12 25 -15 28 -140 3 -125 2 -128 -20 -137 -18 -7 -9
-9 37 -9 43 0 54 3 39 9 -16 6 -23 20 -28 56 -9 68 -7 166 3 162 4 -1 51 -54
102 -117 52 -63 100 -116 107 -119 9 -3 12 30 12 142 0 143 1 147 23 156 16 6
5 9 -43 8 -41 0 -56 -3 -41 -7 32 -9 43 -49 39 -148 l-3 -77 -99 117 c-96 115
-99 117 -140 117 -40 0 -40 -1 -16 -13z"/>
</g>
</svg>
